PathFileType	4	(X/Y/Z)	C:/Users/beibeiliu/ov580/test_trc/User3\out5_training_dense_right.trc
DataRate	CameraRate	NumFrames	NumMarkers	Units	OrigDataRate	OrigDataStartFrame	OrigNumFrames
120	120	16	19	mm	120	63	500
Frame#	Time	ThumbCMC			ThumbMCP			ThumbIP			ThumbTip			IndexMCP			IndexPIP			IndexTip			MiddleMCP			MiddlePIP			MiddleTip			RingMCP			RingPIP			RingTip			PinkyMCP			PinkyPIP			PinkyTip			BackHand1			BackHand2			BackHand3	
		X0	Y0	Z0	X1	Y1	Z1	X2	Y2	Z2	X3	Y3	Z3	X4	Y4	Z4	X5	Y5	Z5	X6	Y6	Z6	X7	Y7	Z7	X8	Y8	Z8	X9	Y9	Z9	X10	Y10	Z10	X11	Y11	Z11	X12	Y12	Z12	X13	Y13	Z13	X14	Y14	Z14	X15	Y15	Z15	X16	Y16	Z16	X17	Y17	Z17	X18	Y18	Z18	
62	0.516667	214.157	50.9292	42.216	221.107	70.3319	13.4682	218.493	69.4983	-21.6777	200.917	55.6141	-35.1214	239.018	33.8271	-23.0365	227.746	60.4188	-37.4857	216.594	69.256	-4.88647	221.923	33.4875	-36.4629	206.734	61.0384	-32.5969	195.446	46.9679	4.93141	202.062	25.0344	-33.3043	186.873	52.7913	-25.5213	184.87	38.9174	7.25743	183.635	19.2639	-31.9273	174.135	43.3063	-18.9524	176.254	30.6422	9.2219	199.263	-6.93551	14.1009	180.921	-8.91357	41.5525	216.505	11.9108	37.7658	
63	0.525	209.482	61.896	40.6242	211.901	80.9282	12.7981	213.35	87.8636	-18.0067	199.749	69.5409	-39.828	238.703	50.0296	-22.2358	221.38	78.3725	-30.7096	207.592	67.7635	-1.26171	222.094	42.2026	-32.3302	201.155	64.9362	-33.2377	192.342	47.6993	6.20654	204.709	30.4239	-31.717	182.495	50.7578	-27.8951	180.618	42.6339	3.8685	188.901	21.2793	-30.7155	175.681	42.4278	-22.6253	172.93	33.0558	7.67855	210.499	-0.939084	13.6197	190.187	-2.89415	43.8267	221.272	25.0375	40.2883	
64	0.533333	194.112	69.5672	44.8402	197.724	91.8144	12.2828	197.693	100.809	-13.8344	195.68	81.1171	-38.6939	233.504	74.7742	-16.9087	202.402	88.1711	-26.7879	195.862	71.7997	0.716665	221.239	59.5355	-28.8238	190.736	67.8236	-32.4561	186.277	56.4068	5.54423	208.002	40.2805	-30.0275	176.239	50.3869	-26.4694	175.978	46.0568	3.1749	197.127	26.9232	-28.83	173.509	40.3541	-22.0091	171.248	30.8807	6.68249	219.828	12.0754	15.9999	201.717	4.26566	45.4499	218.901	39.0621	43.8195	
65	0.541667	178.137	76.2261	42.1744	176.071	91.6603	12.5486	177.673	103.867	-14.4863	182.226	89.09	-37.8062	216.067	90.9735	-16.0409	185.652	86.2178	-30.8415	179.429	73.1323	-3.44856	212.09	69.2754	-31.5756	181.796	68.6045	-34.2758	176.457	58.1292	2.83683	206.492	52.9726	-28.7433	176.272	51.386	-28.5441	172.915	45.6961	4.59798	202.148	34.6358	-27.4935	174.466	34.8837	-21.1157	174.655	30.5247	5.34435	224.425	29.9344	23.1145	207.076	18.935	49.8549	215.285	55.3154	44.8636	
66	0.55	161.963	76.1757	39.2806	155.992	89.2937	10.597	158.168	102.42	-20.04	168.748	88.1879	-40.0113	196.549	97.9009	-20.896	169.924	89.9049	-34.9876	166.62	71.3606	-3.22747	202.501	78.5408	-27.9225	172.159	66.4363	-36.0238	171.283	52.5657	3.08147	200.581	58.1163	-30.8996	172.016	44.9403	-27.9216	169.16	40.8765	2.44055	203.986	40.9759	-26.6231	178.73	33.9662	-24.942	177.105	24.5672	6.59464	225.06	46.1419	22.2607	209.226	30.0574	48.2042	200.458	66.2635	46.2019	
67	0.558333	147.222	72.4303	34.594	140.222	83.6004	4.0816	144.057	91.4085	-26.0996	153.846	82.6662	-46.6507	180.209	98.6617	-26.246	156.141	82.3508	-40.0443	156.649	64.9137	-11.2916	185.381	81.5798	-34.1493	164.546	60.7451	-40.4771	163.121	47.8398	-3.3848	196.862	60.4642	-30.0743	170.403	42.7343	-32.9411	166.948	36.0724	-0.190042	201.911	42.5183	-28.4712	174.269	31.2327	-22.8383	176.06	23.2997	4.3128	214.469	57.1137	23.1219	205.864	36.8925	49.3897	186.967	75.5439	41.3622	
68	0.566667	136.978	66.6839	27.004	128.34	74.2905	-1.91391	125.497	82.2964	-35.2541	142.927	72.2826	-55.2494	166.898	93.7466	-32.7872	148.543	72.2873	-49.7742	144.517	59.9778	-18.0006	177.286	74.9666	-43.3932	157.352	52.6483	-45.8844	156.755	43.0051	-7.23408	187.612	56.3268	-36.9989	163.962	36.8866	-35.3138	161.255	34.3168	0.351164	193.667	42.577	-32.2773	173.398	28.2757	-28.4249	172.409	24.8603	4.62197	204.022	63.3425	17.9415	199.319	45.3685	42.2736	178.717	74.4791	33.2202	
69	0.575	134.149	63.2251	18.0361	120.556	67.3852	-9.04425	120.119	71.074	-43.4931	133.89	58.9514	-59.3482	152.176	86.0135	-45.2806	136.091	61.1823	-53.9021	136.729	51.997	-22.0173	167.38	69.4959	-48.6736	146.447	44.6144	-50.357	152.417	37.3099	-11.2617	179.513	51.2725	-41.2659	157.176	30.2426	-38.3409	159.949	28.3345	-2.73412	183.905	38.2626	-36.5709	169.284	17.7855	-29.7008	169.618	19.4993	0.149949	199.513	63.0388	8.25039	189.4	48.8097	40.0532	165.826	73.6545	28.527	
70	0.583333	127.423	58.1856	14.8864	114.475	58.9798	-16.8482	109.882	58.0574	-49.024	129.346	44.4013	-65.4899	146.724	72.9815	-54.562	128.549	48.3371	-57.0984	131.836	47.4272	-21.3811	163.417	58.0816	-54.9476	139.706	35.4048	-55.2052	144.973	30.9325	-15.9031	170.687	44.104	-45.4482	151.105	20.6859	-40.2171	150.495	26.3808	-5.84808	178.05	30.6257	-40.6613	161.342	12.2307	-26.8268	162.037	18.4208	-1.33076	192.764	60.2419	-0.0169801	186.798	50.3966	30.2948	163.237	74.8172	19.4579	
71	0.591667	122.554	56.1305	9.4614	104.961	52.8611	-19.321	108.662	44.5715	-51.2355	126.521	29.0283	-67.0577	138.862	64.252	-58.3415	125.13	34.7767	-57.3235	125.474	38.1767	-26.1178	152.005	48.3658	-60.8735	134.01	23.9997	-56.6902	137.931	29.3537	-13.9997	164.262	33.3312	-49.7042	150.077	10.5982	-39.0868	148.504	24.1611	-4.93323	176.185	21.8856	-40.4219	156.239	7.24588	-29.7102	159.572	14.9662	-2.64796	188.732	57.7418	-2.4908	181.609	49.5103	30.5978	155.974	69.8937	15.0195	
72	0.6	118.459	53.14	10.9569	101.952	45.3314	-22.4334	103.109	33.3185	-50.8192	121.763	16.5993	-61.2815	134.889	55.5953	-59.7622	117.881	24.8492	-56.05	124.859	32.7455	-25.0848	147.459	38.7155	-61.8408	130.971	12.2969	-53.3877	132.258	22.1613	-16.316	159.606	27.1643	-50.2729	140.221	5.66459	-35.6566	147.104	19.1869	-5.1818	170.508	17.1554	-40.5676	150.803	2.72603	-23.8424	158.841	14.645	3.12485	183.322	55.2802	-7.46348	181.571	50.7635	21.6801	150.988	71.2715	5.40148	
73	0.608333	113.989	51.8776	6.18225	92.0237	37.9762	-19.0865	95.8581	20.3784	-44.7704	114.548	4.7824	-54.581	124.21	45.5328	-62.0605	105.991	18.8125	-54.5399	114.624	26.2637	-23.9738	138.566	30.2938	-61.9222	123.354	5.67227	-51.93	127.213	17.655	-13.8586	151.78	20.1376	-49.4513	137.218	-3.58111	-30.8732	141.294	16.0972	-3.35505	164.51	8.70905	-38.9291	148.348	-5.44195	-19.6626	153.836	13.7048	5.6972	174.746	52.4555	-14.2542	175.415	52.2331	20.4772	145.727	68.973	4.01292	
74	0.616667	109.817	49.383	7.62224	90.7921	30.5036	-16.8695	90.0337	10.2207	-37.3739	110.941	-5.99988	-44.1524	115.855	35.4606	-60.3256	99.55	8.92518	-47.4701	112.01	20.9434	-20.5451	129.674	19.8919	-59.0006	116.658	-3.56087	-41.9102	123.979	12.686	-9.06413	145.422	11.4581	-47.1788	130.513	-7.46694	-22.2565	134.957	11.1599	0.250772	157.384	1.94777	-36.2733	140.507	-7.85601	-13.0039	146.9	13.9599	6.37448	172.213	47.3013	-18.7948	172.475	52.9045	17.0901	142.662	67.872	-4.3368	
75	0.625	105.464	49.3787	7.34905	83.2294	28.0042	-10.001	81.4628	3.65843	-29.171	105.225	-16.4942	-39.0425	106.763	25.0798	-57.4158	92.6105	3.64825	-40.2125	102.63	21.9091	-14.6425	121.44	15.2168	-55.0148	105.116	-7.2951	-32.9647	119.888	16.5198	-2.79163	134.774	-0.0407011	-42.2803	121.127	-11.6763	-20.7005	129.298	10.8273	4.52521	150.596	-3.73178	-32.5716	135.464	-13.268	-10.442	141.914	10.1261	11.7588	167.402	42.6297	-21.1047	169.592	51.118	12.7082	138.167	67.4718	-7.76516	
76	0.633333	101.938	51.8659	10.354	77.5552	27.2181	-8.77187	75.4681	1.97746	-22.8347	93.5028	-19.8418	-30.5591	100.713	23.3909	-53.5129	80.4883	3.44545	-33.6477	100.394	23.4585	-10.0366	110.095	9.17876	-50.8186	97.0183	-9.65292	-25.5858	110.066	15.453	0.503796	125.28	0.828144	-38.8447	112.838	-12.0701	-10.4761	122.174	10.8903	9.20446	139.221	-5.72222	-28.8849	125.702	-12.7099	-5.47147	131.93	11.9603	15.1844	158.809	41.3534	-19.0629	168.688	50.2503	5.95429	135.933	65.7856	-4.89423	
77	0.641667	97.1824	55.6931	11.3852	73.6589	32.682	0.537477	64.5978	7.09048	-14.7617	81.167	-17.0385	-21.8994	82.9054	21.5188	-48.5867	72.4282	5.43436	-24.3393	93.4566	23.7197	-5.65007	99.0478	6.13667	-45.1153	83.6959	-5.9805	-20.0991	105.628	15.8108	5.35955	113.318	-6.73915	-32.802	100.808	-9.88654	-7.61489	111.692	11.916	13.6566	129.932	-11.3305	-23.3852	117.796	-11.6289	2.76955	128.941	12.484	19.6263	150.945	36.3562	-23.4734	163.226	46.0036	3.35536	132.619	61.9859	-8.97025	
